# xmcd CD database file
#
# Track frame offsets:
#	150
#	14702
#	29405
#	45955
#	59442
#	80102
#	93637
#	111460
#	130877
#	142097
#	162545
#	176615
#
# Disc length: 2532 seconds
#
# Revision: 3
# Processed by: cddbd v1.5.2PL0 Copyright (c) Steve Scherf et al.
# Submitted via: CDex 1.70beta2
#
DISCID=b109e20c
DTITLE=Belinda Gail and Wild Wind - Lass of the San Joaquin
DYEAR=1997
DGENRE=Country
TTITLE0=Amigo
TTITLE1=Cattle Call
TTITLE2=Lass Of The San Joaquin
TTITLE3=He's Courtin Annie
TTITLE4=Sierra Nevada
TTITLE5=Montana Lullaby
TTITLE6=Horse Corral Meadow
TTITLE7=Red River Valley
TTITLE8=Headin Back (To San Antonio)
TTITLE9=My Only Love
TTITLE10=He's Being A Kid Again
TTITLE11=Amazing Grace
EXTD=YEAR: 1997
EXTT0=
EXTT1=
EXTT2=
EXTT3=
EXTT4=
EXTT5=
EXTT6=
EXTT7=
EXTT8=
EXTT9=
EXTT10=
EXTT11=
PLAYORDER=
